<svg width="57" height="57" viewBox="0 0 57 57" fill="none" xmlns="http://www.w3.org/2000/svg">
<path d="M17.8164 19.9375V37H14.3828V19.9375H17.8164ZM26.2891 19.9375L20.7578 28.4102L17.3711 32.6289L16.7148 29.1953L18.9062 25.5391L22.1172 19.9375H26.2891ZM22.3281 37L18.6016 29.1602L21.1211 26.9336L26.3711 37H22.3281ZM28.8906 19.9375H31.9023L35.3828 31.6094L38.8516 19.9375H41.5117L36.6602 37H34.0938L28.8906 19.9375ZM27.6719 19.9375H30.543L30.9883 31.1875V37H27.6719V19.9375ZM40.1992 19.9375H43.082V37H39.7773V31.1875L40.1992 19.9375Z" fill="black"/>
<circle cx="28.5" cy="28.5" r="26" stroke="black" stroke-width="5"/>
</svg>
